<svg height="24" viewBox="0 0 24 24" width="24" xmlns="http://www.w3.org/2000/svg"><g fill="none" fill-rule="evenodd"><path d="m0 0h24v24h-24z"/><path d="m8.25 20.99c7.46-.34 12.46-5.69 12.57-13.51.8-.68 1.75-1.48 2.18-2.38-.69.35-1.51.57-2.43.7.84-.62 1.53-1.38 1.89-2.49-.87.46-1.77.88-2.88 1.09-2.62-3.18-8.9-.61-7.8 4.12-4.41-.27-7.1-2.27-9.34-4.72-1.28 2.07-.17 5.2 1.34 6.06-.78-.04-1.37-.28-1.93-.54.08 2.6 1.51 3.85 3.52 4.52-.61.13-1.29.16-1.94.05.62 1.82 1.94 2.96 4.17 3.18-1.51 1.29-4.33 2.2-6.6 1.83 1.94 1.23 4.17 2.22 7.25 2.09z" fill="#80868b"/></g></svg>