<svg height="24" viewBox="0 0 24 24" width="24" xmlns="http://www.w3.org/2000/svg"><g fill="none" fill-rule="evenodd"><path d="m20 2h-16c-1.105 0-1.99.895-1.99 2l-.01 16c0 1.105.895 2 2 2h16c1.105 0 2-.895 2-2v-16c0-1.105-.895-2-2-2zm-4 7v1c0 .555.445 1 1 1s1 .445 1 1v3c0 1.655-1.345 3-3 3h-6c-1.655 0-3-1.345-3-3v-7c0-1.655 1.345-3 3-3h4c1.655 0 3 1.345 3 3zm-6.05 1h2.6c.555 0 1-.445 1-1s-.445-1-1-1h-2.6c-.555 0-1 .445-1 1s.45 1 1 1zm4.05 3h-4.05c-.555 0-1 .445-1 1s.445 1 1 1h4.05c.555 0 1-.445 1-1s-.445-1-1-1z" fill="#80868b" fill-rule="nonzero"/><path d="m0 0h24v24h-24z"/></g></svg>