<svg height="24" viewBox="0 0 132 24" width="132" xmlns="http://www.w3.org/2000/svg"><g fill="#fff" fill-rule="evenodd"><path d="m9.2398 9.1877v2.459h5.883c-.176 1.383-.637 2.392-1.339 3.095-.856.856-2.196 1.8-4.544 1.8-3.622 0-6.454-2.92-6.454-6.542s2.832-6.541 6.454-6.541c1.953 0 3.38.768 4.434 1.756l1.734-1.734c-1.471-1.405-3.424-2.481-6.168-2.481-4.961 0-9.132 4.039-9.132 9s4.171 9 9.132 9c2.678 0 4.697-.878 6.278-2.524 1.624-1.625 2.129-3.907 2.129-5.752 0-.57-.043-1.097-.132-1.536z"/><path d="m25.0002 16.5203c-1.76 0-3.279-1.452-3.279-3.521 0-2.089 1.519-3.52 3.279-3.52s3.278 1.431 3.278 3.52c0 2.069-1.518 3.521-3.278 3.521m0-9.329c-3.212 0-5.831 2.442-5.831 5.808 0 3.345 2.619 5.81 5.831 5.81s5.831-2.465 5.831-5.81c0-3.366-2.619-5.808-5.831-5.808"/><path d="m50.6543 16.5203c-1.76 0-3.102-1.496-3.102-3.52 0-2.047 1.342-3.521 3.102-3.521 1.738 0 3.102 1.497 3.102 3.543 0 2.024-1.364 3.498-3.102 3.498zm2.925-8.031h-.088c-.572-.682-1.672-1.298-3.058-1.298-2.904 0-5.433 2.53-5.433 5.809 0 3.256 2.529 5.809 5.433 5.809 1.386 0 2.486-.617 3.058-1.321h.088v.813c0 2.222-1.188 3.41-3.102 3.41-1.562 0-2.531-1.122-2.927-2.068l-2.222.924c.639 1.54 2.332 3.433 5.149 3.433 2.992 0 5.523-1.761 5.523-6.051v-10.459h-2.421z"/><path d="m38.0002 16.5203c-1.76 0-3.278-1.452-3.278-3.521 0-2.089 1.518-3.52 3.278-3.52s3.278 1.431 3.278 3.52c0 2.069-1.518 3.521-3.278 3.521m0-9.329c-3.212 0-5.831 2.442-5.831 5.808 0 3.345 2.619 5.81 5.831 5.81s5.831-2.465 5.831-5.81c0-3.366-2.619-5.808-5.831-5.808"/><path d="m58 18.809h2.51v-17.569h-2.51z"/><path d="m68.0759 9.3677c1.033 0 1.908.526 2.2 1.282l-5.246 2.174c0-2.449 1.732-3.456 3.046-3.456m.189 7.153c-1.298 0-2.222-.594-2.817-1.76l7.767-3.213-.264-.66c-.484-1.298-1.958-3.696-4.972-3.696-2.993 0-5.479 2.354-5.479 5.808 0 3.257 2.464 5.809 5.765 5.809 2.662 0 4.202-1.628 4.841-2.574l-1.981-1.321c-.66.969-1.562 1.607-2.86 1.607"/><path d="m90.78 5.184h-7.172v4.994h6.468v1.892h-6.468v4.994h7.172v1.936h-9.196v-15.752h9.196zm5.786 14.168c-1.1440057 0-2.1009961-.3299967-2.871-.99s-1.155-1.5326612-1.155-2.618c0-1.1733392.4546621-2.0936633 1.364-2.761s2.0313267-1.001 3.366-1.001c1.1880059 0 2.1633295.2199978 2.926.66v-.308c0-.792004-.2713306-1.4263309-.814-1.903-.5426694-.47666905-1.209996-.715-2.002-.715-.5866696 0-1.118331.13933194-1.595.418-.4766691.2786681-.8029991.6599976-.979 1.144l-1.848-.792c.2493346-.64533656.740663-1.24299725 1.474-1.793s1.7013273-.825 2.904-.825c1.3786736 0 2.5226621.4033293 3.432 1.21.909338.8066707 1.364 1.943326 1.364 3.41v6.512h-1.936v-1.496h-.088c-.8066707 1.2320062-1.9873256 1.848-3.542 1.848zm.33-1.848c.8360042 0 1.5949966-.3116636 2.277-.935.6820034-.6233365 1.023-1.3603291 1.023-2.211-.5720029-.4693357-1.4299943-.704-2.574-.704-.9826716 0-1.7233308.2126645-2.222.638s-.748.9239971-.748 1.496c0 .5280026.2273311.9459985.682 1.254s.9753304.462 1.562.462zm20.548 1.672c-1.129339 0-1.990997-.3006637-2.585-.902s-.891-1.4519945-.891-2.552v-5.654h-1.892v-1.848h1.892v-3.3h2.024v3.3h2.64v1.848h-2.64v5.5c0 1.1733392.483995 1.76 1.452 1.76.366668 0 .674665-.0586661.924-.176l.704 1.738c-.440002.1906676-.982663.286-1.628.286zm-11.088-10.956v1.76h.088c.234668-.63066982.670997-1.12566487 1.309-1.485s1.33833-.539 2.101-.539c.220001 0 .461999.01466652.726.044v1.98c-.278668-.02933348-.549999-.044-.814-.044-.968005 0-1.763664.2823305-2.387.847s-.935 1.3383284-.935 2.321v5.896h-2.024v-10.78zm16.236-4.972v4.972l-.088 1.496h.088c.293335-.5133359.75533-.94966487 1.386-1.309s1.30533-.539 2.024-.539c1.334673 0 2.353996.41066256 3.058 1.232s1.056 1.9213264 1.056 3.3v6.6h-2.024v-6.292c0-1.9946766-.887324-2.992-2.662-2.992-.836004 0-1.517997.3336633-2.046 1.001s-.792 1.4409956-.792 2.321v5.962h-2.024v-15.752z"/></g></svg>