<svg width="565" height="1128" viewBox="0 0 565 1128" fill="none" xmlns="http://www.w3.org/2000/svg">
<path d="M570.26 278.374L877.276 278.374L1007.97 52.2883C995.139 44.6881 980.406 40.8891 965.197 40.8891L482.338 40.8891C467.129 40.8891 452.396 45.1636 439.564 52.2884L570.26 278.374Z" fill="#2684FC"/>
<path d="M439.803 52.5677C426.975 60.1575 416.047 70.5941 408.446 83.8765L393.241 109.967L320.547 235.679C312.945 248.962 309.144 263.667 309.144 278.373L569.988 278.373L439.803 52.5677Z" fill="#EA4335"/>
<path d="M442.181 529.325L562.387 737.664C569.959 750.923 580.845 761.339 593.623 768.915L723.768 543.531L570.907 278.372L311.089 278.372C311.089 293.051 314.875 307.729 322.447 320.988L442.181 529.325Z" fill="#FFBA00"/>
</svg>
